<svg width="120" height="120" viewBox="0 0 120 120" fill="none" xmlns="http://www.w3.org/2000/svg">
<rect width="120" height="120" rx="15" fill="#CDD1C4"/>
<rect x="60" y="49" width="6" height="6" fill="#30323D"/>
<rect x="60" y="55" width="6" height="6" fill="#30323D"/>
<rect x="60" y="61" width="6" height="6" fill="#30323D"/>
<rect x="60" y="67" width="6" height="6" fill="#30323D"/>
<rect x="60" y="73" width="6" height="6" fill="#30323D"/>
<rect x="60" y="79" width="6" height="6" fill="#30323D"/>
<rect x="60" y="85" width="6" height="6" fill="#30323D"/>
<rect x="60" y="91" width="6" height="6" fill="#30323D"/>
<rect x="60" y="97" width="6" height="6" fill="#30323D"/>
<rect x="60" y="103" width="6" height="6" fill="#30323D"/>
<rect x="60" y="109" width="6" height="11" fill="#30323D"/>
<rect x="54" y="49" width="6" height="6" fill="#30323D"/>
<rect x="54" y="55" width="6" height="6" fill="#30323D"/>
<rect x="54" y="61" width="6" height="6" fill="#30323D"/>
<rect x="54" y="67" width="6" height="6" fill="#30323D"/>
<rect x="54" y="73" width="6" height="6" fill="#30323D"/>
<rect x="54" y="79" width="6" height="6" fill="#30323D"/>
<rect x="54" y="85" width="6" height="6" fill="#30323D"/>
<rect x="54" y="91" width="6" height="6" fill="#30323D"/>
<rect x="54" y="97" width="6" height="6" fill="#30323D"/>
<rect x="54" y="103" width="6" height="6" fill="#30323D"/>
<rect x="54" y="109" width="6" height="11" fill="#30323D"/>
<rect x="12" y="31" width="6" height="6" fill="#30323D"/>
<rect x="12" y="37" width="6" height="6" fill="#30323D"/>
<rect x="12" y="25" width="6" height="6" fill="#30323D"/>
<rect x="18" y="19" width="6" height="6" fill="#30323D"/>
<rect x="24" y="13" width="6" height="6" fill="#30323D"/>
<rect x="18" y="37" width="6" height="6" fill="#30323D"/>
<rect x="24" y="37" width="6" height="6" fill="#30323D"/>
<rect x="30" y="37" width="6" height="6" fill="#30323D"/>
<rect x="36" y="37" width="6" height="6" fill="#30323D"/>
<rect x="42" y="37" width="6" height="6" fill="#30323D"/>
<rect x="18" y="31" width="6" height="6" fill="#E8C547"/>
<rect x="18" y="25" width="6" height="6" fill="#E8C547"/>
<rect x="24" y="25" width="6" height="6" fill="#E8C547"/>
<rect x="30" y="25" width="6" height="6" fill="#E8C547"/>
<rect x="36" y="25" width="6" height="6" fill="#E8C547"/>
<rect x="42" y="25" width="6" height="6" fill="#E8C547"/>
<rect x="48" y="25" width="6" height="6" fill="#E8C547"/>
<rect x="54" y="25" width="6" height="6" fill="#E8C547"/>
<rect x="60" y="25" width="6" height="6" fill="#E8C547"/>
<rect x="66" y="25" width="6" height="6" fill="#E8C547"/>
<rect x="72" y="25" width="6" height="6" fill="#E8C547"/>
<rect x="78" y="25" width="6" height="6" fill="#E8C547"/>
<rect x="84" y="25" width="6" height="6" fill="#E8C547"/>
<rect x="90" y="25" width="6" height="6" fill="#E8C547"/>
<rect x="96" y="25" width="6" height="6" fill="#E8C547"/>
<rect x="96" y="31" width="6" height="6" fill="#E8C547"/>
<rect x="90" y="31" width="6" height="6" fill="#E8C547"/>
<rect x="84" y="31" width="6" height="6" fill="#E8C547"/>
<rect x="78" y="31" width="6" height="6" fill="#E8C547"/>
<rect x="72" y="31" width="6" height="6" fill="#E8C547"/>
<rect x="66" y="31" width="6" height="6" fill="#E8C547"/>
<rect x="60" y="31" width="6" height="6" fill="#E8C547"/>
<rect x="54" y="31" width="6" height="6" fill="#E8C547"/>
<rect x="48" y="31" width="6" height="6" fill="#E8C547"/>
<rect x="42" y="31" width="6" height="6" fill="#E8C547"/>
<rect x="36" y="31" width="6" height="6" fill="#E8C547"/>
<rect x="30" y="31" width="6" height="6" fill="#E8C547"/>
<rect x="24" y="31" width="6" height="6" fill="#E8C547"/>
<rect x="24" y="19" width="6" height="6" fill="#E8C547"/>
<rect x="30" y="19" width="6" height="6" fill="#E8C547"/>
<rect x="36" y="19" width="6" height="6" fill="#E8C547"/>
<rect x="42" y="19" width="6" height="6" fill="#E8C547"/>
<rect x="48" y="19" width="6" height="6" fill="#E8C547"/>
<rect x="54" y="19" width="6" height="6" fill="#E8C547"/>
<rect x="60" y="19" width="6" height="6" fill="#E8C547"/>
<rect x="66" y="19" width="6" height="6" fill="#E8C547"/>
<rect x="72" y="19" width="6" height="6" fill="#E8C547"/>
<rect x="78" y="19" width="6" height="6" fill="#E8C547"/>
<rect x="84" y="19" width="6" height="6" fill="#E8C547"/>
<rect x="90" y="19" width="6" height="6" fill="#E8C547"/>
<rect x="48" y="37" width="6" height="6" fill="#30323D"/>
<rect x="54" y="37" width="6" height="6" fill="#30323D"/>
<rect x="60" y="37" width="6" height="6" fill="#30323D"/>
<rect x="66" y="37" width="6" height="6" fill="#30323D"/>
<rect x="72" y="37" width="6" height="6" fill="#30323D"/>
<rect x="78" y="37" width="6" height="6" fill="#30323D"/>
<rect x="90" y="37" width="6" height="6" fill="#30323D"/>
<rect x="96" y="37" width="6" height="6" fill="#30323D"/>
<rect x="102" y="37" width="6" height="6" fill="#30323D"/>
<rect x="102" y="31" width="6" height="6" fill="#30323D"/>
<rect x="102" y="25" width="6" height="6" fill="#30323D"/>
<rect x="96" y="19" width="6" height="6" fill="#30323D"/>
<rect x="90" y="13" width="6" height="6" fill="#30323D"/>
<rect x="84" y="13" width="6" height="6" fill="#30323D"/>
<rect x="78" y="13" width="6" height="6" fill="#30323D"/>
<rect x="72" y="13" width="6" height="6" fill="#30323D"/>
<rect x="66" y="13" width="6" height="6" fill="#30323D"/>
<rect x="60" y="13" width="6" height="6" fill="#30323D"/>
<rect x="54" y="13" width="6" height="6" fill="#30323D"/>
<rect x="48" y="13" width="6" height="6" fill="#30323D"/>
<rect x="42" y="13" width="6" height="6" fill="#30323D"/>
<rect x="36" y="13" width="6" height="6" fill="#30323D"/>
<rect x="30" y="13" width="6" height="6" fill="#30323D"/>
<rect x="36" y="22" width="6" height="6" fill="#30323D"/>
<rect x="42" y="28" width="6" height="6" fill="#30323D"/>
<rect x="48" y="22" width="6" height="6" fill="#30323D"/>
<rect x="54" y="28" width="6" height="6" fill="#30323D"/>
<rect x="60" y="22" width="6" height="6" fill="#30323D"/>
<rect x="66" y="28" width="6" height="6" fill="#30323D"/>
<rect x="72" y="22" width="6" height="6" fill="#30323D"/>
<rect x="78" y="28" width="6" height="6" fill="#30323D"/>
<rect x="6" y="43" width="6" height="6" fill="#30323D"/>
<rect y="43" width="6" height="6" fill="#30323D"/>
<rect x="114" y="43" width="6" height="6" fill="#30323D"/>
<rect x="12" y="43" width="6" height="6" fill="#30323D"/>
<rect x="18" y="43" width="6" height="6" fill="#30323D"/>
<rect x="24" y="43" width="6" height="6" fill="#30323D"/>
<rect x="30" y="43" width="6" height="6" fill="#30323D"/>
<rect x="36" y="43" width="6" height="6" fill="#30323D"/>
<rect x="42" y="43" width="6" height="6" fill="#30323D"/>
<rect x="48" y="43" width="6" height="6" fill="#30323D"/>
<rect x="54" y="43" width="6" height="6" fill="#30323D"/>
<rect x="60" y="43" width="6" height="6" fill="#30323D"/>
<rect x="66" y="43" width="6" height="6" fill="#30323D"/>
<rect x="72" y="43" width="6" height="6" fill="#30323D"/>
<rect x="78" y="43" width="6" height="6" fill="#30323D"/>
<rect x="84" y="43" width="6" height="6" fill="#30323D"/>
<rect x="90" y="43" width="6" height="6" fill="#30323D"/>
<rect x="96" y="43" width="6" height="6" fill="#30323D"/>
<rect x="102" y="43" width="6" height="6" fill="#30323D"/>
<rect x="108" y="43" width="6" height="6" fill="#30323D"/>
<rect x="84" y="37" width="6" height="6" fill="#30323D"/>
</svg>
