<svg width="261" height="79" viewBox="0 0 261 79" fill="none" xmlns="http://www.w3.org/2000/svg">
<rect x="27.1606" y="55" width="6.61812" height="6" fill="#30323D"/>
<rect x="33.7788" y="49" width="6.61812" height="6" fill="#30323D"/>
<rect x="40.3969" y="49" width="6.61812" height="6" fill="#30323D"/>
<rect x="47.015" y="49" width="6.61812" height="6" fill="#30323D"/>
<rect x="33.7788" y="61" width="6.61812" height="6" fill="#30323D"/>
<rect x="40.3969" y="61" width="6.61812" height="6" fill="#30323D"/>
<rect x="60.2512" y="55" width="6.61812" height="6" fill="#30323D"/>
<rect x="60.2512" y="61" width="6.61812" height="6" fill="#30323D"/>
<rect x="60.2512" y="67" width="6.61812" height="6" fill="#30323D"/>
<rect x="60.2512" y="73" width="6.61812" height="6" fill="#30323D"/>
<rect x="66.8694" y="49" width="6.61812" height="6" fill="#30323D"/>
<rect x="73.4875" y="49" width="6.61812" height="6" fill="#30323D"/>
<rect x="66.8694" y="61" width="6.61812" height="6" fill="#30323D"/>
<rect x="73.4875" y="61" width="6.61812" height="6" fill="#30323D"/>
<rect x="80.1056" y="55" width="6.61812" height="6" fill="#30323D"/>
<rect x="93.3418" y="55" width="6.61812" height="6" fill="#30323D"/>
<rect x="93.3418" y="61" width="6.61812" height="6" fill="#30323D"/>
<rect x="93.3418" y="67" width="6.61812" height="6" fill="#30323D"/>
<rect x="99.9599" y="73" width="6.61812" height="6" fill="#30323D"/>
<rect x="106.578" y="73" width="6.61812" height="6" fill="#30323D"/>
<rect x="113.196" y="67" width="6.61812" height="6" fill="#30323D"/>
<rect x="113.196" y="61" width="6.61812" height="6" fill="#30323D"/>
<rect x="113.196" y="55" width="6.61812" height="6" fill="#30323D"/>
<rect x="99.9599" y="49" width="6.61812" height="6" fill="#30323D"/>
<rect x="106.578" y="49" width="6.61812" height="6" fill="#30323D"/>
<rect x="80.1056" y="67" width="6.61812" height="6" fill="#30323D"/>
<rect x="80.1056" y="73" width="6.61812" height="6" fill="#30323D"/>
<rect x="27.1606" y="61" width="6.61812" height="6" fill="#30323D"/>
<rect x="27.1606" y="67" width="6.61812" height="6" fill="#30323D"/>
<rect x="27.1606" y="73" width="6.61812" height="6" fill="#30323D"/>
<rect x="126.432" y="49" width="6.61812" height="6" fill="#30323D"/>
<rect x="133.051" y="49" width="6.61812" height="6" fill="#30323D"/>
<rect x="139.669" y="49" width="6.61812" height="6" fill="#30323D"/>
<rect x="133.051" y="55" width="6.61812" height="6" fill="#30323D"/>
<rect x="133.051" y="61" width="6.61812" height="6" fill="#30323D"/>
<rect x="133.051" y="73" width="6.61812" height="6" fill="#30323D"/>
<rect x="133.051" y="67" width="6.61812" height="6" fill="#30323D"/>
<rect x="152.905" y="55" width="6.61812" height="6" fill="#30323D"/>
<rect x="152.905" y="61" width="6.61812" height="6" fill="#30323D"/>
<rect x="152.905" y="67" width="6.61812" height="6" fill="#30323D"/>
<rect x="152.905" y="73" width="6.61812" height="6" fill="#30323D"/>
<rect x="159.523" y="49" width="6.61812" height="6" fill="#30323D"/>
<rect x="166.141" y="49" width="6.61812" height="6" fill="#30323D"/>
<rect x="172.759" y="55" width="6.61812" height="6" fill="#30323D"/>
<rect x="185.995" y="73" width="6.61812" height="6" fill="#30323D"/>
<rect x="185.995" y="67" width="6.61812" height="6" fill="#30323D"/>
<rect x="185.995" y="55" width="6.61812" height="6" fill="#30323D"/>
<rect x="185.995" y="49" width="6.61812" height="6" fill="#30323D"/>
<rect x="192.614" y="61" width="6.61812" height="6" fill="#30323D"/>
<rect x="199.232" y="73" width="6.61812" height="6" fill="#30323D"/>
<rect x="199.232" y="67" width="6.61812" height="6" fill="#30323D"/>
<rect x="199.232" y="55" width="6.61812" height="6" fill="#30323D"/>
<rect x="199.232" y="49" width="6.61812" height="6" fill="#30323D"/>
<rect x="172.759" y="61" width="6.61812" height="6" fill="#30323D"/>
<rect x="172.759" y="67" width="6.61812" height="6" fill="#30323D"/>
<rect x="172.759" y="73" width="6.61812" height="6" fill="#30323D"/>
<rect x="166.141" y="61" width="6.61812" height="6" fill="#30323D"/>
<rect x="159.523" y="61" width="6.61812" height="6" fill="#30323D"/>
<rect x="212.468" y="49" width="6.61812" height="6" fill="#30323D"/>
<rect x="219.086" y="49" width="6.61812" height="6" fill="#30323D"/>
<rect x="225.704" y="49" width="6.61812" height="6" fill="#30323D"/>
<rect x="219.086" y="55" width="6.61812" height="6" fill="#30323D"/>
<rect x="219.086" y="61" width="6.61812" height="6" fill="#30323D"/>
<rect x="219.086" y="67" width="6.61812" height="6" fill="#30323D"/>
<rect x="219.086" y="73" width="6.61812" height="6" fill="#30323D"/>
<rect x="212.468" y="73" width="6.61812" height="6" fill="#30323D"/>
<rect x="225.704" y="73" width="6.61812" height="6" fill="#30323D"/>
<rect y="61" width="6" height="6" fill="#30323D"/>
<rect x="6" y="67" width="6" height="6" fill="#30323D"/>
<rect x="12" y="61" width="6" height="6" fill="#30323D"/>
<rect x="18" y="67" width="6" height="6" fill="#30323D"/>
<rect x="237" y="61" width="6" height="6" fill="#30323D"/>
<rect x="243" y="67" width="6" height="6" fill="#30323D"/>
<rect x="249" y="61" width="6" height="6" fill="#30323D"/>
<rect x="255" y="67" width="6" height="6" fill="#30323D"/>
<rect x="83" y="18" width="6" height="6" fill="#30323D"/>
<rect x="83" y="24" width="6" height="6" fill="#30323D"/>
<rect x="83" y="12" width="6" height="6" fill="#30323D"/>
<rect x="89" y="6" width="6" height="6" fill="#30323D"/>
<rect x="95" width="6" height="6" fill="#30323D"/>
<rect x="89" y="24" width="6" height="6" fill="#30323D"/>
<rect x="95" y="24" width="6" height="6" fill="#30323D"/>
<rect x="101" y="24" width="6" height="6" fill="#30323D"/>
<rect x="107" y="24" width="6" height="6" fill="#30323D"/>
<rect x="113" y="24" width="6" height="6" fill="#30323D"/>
<rect x="89" y="18" width="6" height="6" fill="#E8C547"/>
<rect x="89" y="12" width="6" height="6" fill="#E8C547"/>
<rect x="95" y="12" width="6" height="6" fill="#E8C547"/>
<rect x="101" y="12" width="6" height="6" fill="#E8C547"/>
<rect x="107" y="12" width="6" height="6" fill="#E8C547"/>
<rect x="113" y="12" width="6" height="6" fill="#E8C547"/>
<rect x="119" y="12" width="6" height="6" fill="#E8C547"/>
<rect x="125" y="12" width="6" height="6" fill="#E8C547"/>
<rect x="131" y="12" width="6" height="6" fill="#E8C547"/>
<rect x="137" y="12" width="6" height="6" fill="#E8C547"/>
<rect x="143" y="12" width="6" height="6" fill="#E8C547"/>
<rect x="149" y="12" width="6" height="6" fill="#E8C547"/>
<rect x="155" y="12" width="6" height="6" fill="#E8C547"/>
<rect x="161" y="12" width="6" height="6" fill="#E8C547"/>
<rect x="167" y="12" width="6" height="6" fill="#E8C547"/>
<rect x="167" y="18" width="6" height="6" fill="#E8C547"/>
<rect x="161" y="18" width="6" height="6" fill="#E8C547"/>
<rect x="155" y="18" width="6" height="6" fill="#E8C547"/>
<rect x="149" y="18" width="6" height="6" fill="#E8C547"/>
<rect x="143" y="18" width="6" height="6" fill="#E8C547"/>
<rect x="137" y="18" width="6" height="6" fill="#E8C547"/>
<rect x="131" y="18" width="6" height="6" fill="#E8C547"/>
<rect x="125" y="18" width="6" height="6" fill="#E8C547"/>
<rect x="119" y="18" width="6" height="6" fill="#E8C547"/>
<rect x="113" y="18" width="6" height="6" fill="#E8C547"/>
<rect x="107" y="18" width="6" height="6" fill="#E8C547"/>
<rect x="101" y="18" width="6" height="6" fill="#E8C547"/>
<rect x="95" y="18" width="6" height="6" fill="#E8C547"/>
<rect x="95" y="6" width="6" height="6" fill="#E8C547"/>
<rect x="101" y="6" width="6" height="6" fill="#E8C547"/>
<rect x="107" y="6" width="6" height="6" fill="#E8C547"/>
<rect x="113" y="6" width="6" height="6" fill="#E8C547"/>
<rect x="119" y="6" width="6" height="6" fill="#E8C547"/>
<rect x="125" y="6" width="6" height="6" fill="#E8C547"/>
<rect x="131" y="6" width="6" height="6" fill="#E8C547"/>
<rect x="137" y="6" width="6" height="6" fill="#E8C547"/>
<rect x="143" y="6" width="6" height="6" fill="#E8C547"/>
<rect x="149" y="6" width="6" height="6" fill="#E8C547"/>
<rect x="155" y="6" width="6" height="6" fill="#E8C547"/>
<rect x="161" y="6" width="6" height="6" fill="#E8C547"/>
<rect x="119" y="24" width="6" height="6" fill="#30323D"/>
<rect x="125" y="24" width="6" height="6" fill="#30323D"/>
<rect x="131" y="24" width="6" height="6" fill="#30323D"/>
<rect x="137" y="24" width="6" height="6" fill="#30323D"/>
<rect x="143" y="24" width="6" height="6" fill="#30323D"/>
<rect x="149" y="24" width="6" height="6" fill="#30323D"/>
<rect x="161" y="24" width="6" height="6" fill="#30323D"/>
<rect x="167" y="24" width="6" height="6" fill="#30323D"/>
<rect x="173" y="24" width="6" height="6" fill="#30323D"/>
<rect x="173" y="18" width="6" height="6" fill="#30323D"/>
<rect x="173" y="12" width="6" height="6" fill="#30323D"/>
<rect x="167" y="6" width="6" height="6" fill="#30323D"/>
<rect x="161" width="6" height="6" fill="#30323D"/>
<rect x="155" width="6" height="6" fill="#30323D"/>
<rect x="149" width="6" height="6" fill="#30323D"/>
<rect x="143" width="6" height="6" fill="#30323D"/>
<rect x="137" width="6" height="6" fill="#30323D"/>
<rect x="131" width="6" height="6" fill="#30323D"/>
<rect x="125" width="6" height="6" fill="#30323D"/>
<rect x="119" width="6" height="6" fill="#30323D"/>
<rect x="113" width="6" height="6" fill="#30323D"/>
<rect x="107" width="6" height="6" fill="#30323D"/>
<rect x="101" width="6" height="6" fill="#30323D"/>
<rect x="107" y="9" width="6" height="6" fill="#30323D"/>
<rect x="113" y="15" width="6" height="6" fill="#30323D"/>
<rect x="119" y="9" width="6" height="6" fill="#30323D"/>
<rect x="125" y="15" width="6" height="6" fill="#30323D"/>
<rect x="131" y="9" width="6" height="6" fill="#30323D"/>
<rect x="137" y="15" width="6" height="6" fill="#30323D"/>
<rect x="143" y="9" width="6" height="6" fill="#30323D"/>
<rect x="149" y="15" width="6" height="6" fill="#30323D"/>
<rect x="77" y="30" width="6" height="6" fill="#30323D"/>
<rect x="83" y="30" width="6" height="6" fill="#30323D"/>
<rect x="89" y="30" width="6" height="6" fill="#30323D"/>
<rect x="95" y="30" width="6" height="6" fill="#30323D"/>
<rect x="101" y="30" width="6" height="6" fill="#30323D"/>
<rect x="107" y="30" width="6" height="6" fill="#30323D"/>
<rect x="113" y="30" width="6" height="6" fill="#30323D"/>
<rect x="119" y="30" width="6" height="6" fill="#30323D"/>
<rect x="125" y="30" width="6" height="6" fill="#30323D"/>
<rect x="131" y="30" width="6" height="6" fill="#30323D"/>
<rect x="137" y="30" width="6" height="6" fill="#30323D"/>
<rect x="143" y="30" width="6" height="6" fill="#30323D"/>
<rect x="149" y="30" width="6" height="6" fill="#30323D"/>
<rect x="155" y="30" width="6" height="6" fill="#30323D"/>
<rect x="161" y="30" width="6" height="6" fill="#30323D"/>
<rect x="167" y="30" width="6" height="6" fill="#30323D"/>
<rect x="173" y="30" width="6" height="6" fill="#30323D"/>
<rect x="179" y="30" width="6" height="6" fill="#30323D"/>
<rect x="155" y="24" width="6" height="6" fill="#30323D"/>
</svg>
